<svg aria-hidden="true" style="position: absolute; width: 0; height: 0; overflow: hidden;" version="1.1" xmlns="http://www.w3.org/2000/svg" xmlns:xlink="http://www.w3.org/1999/xlink">
<defs>
<symbol id="icon-error" viewBox="0 0 32 32">
<path fill="#ff868e" style="fill: var(--color1, #ff868e)" d="M0 16c0-8.837 7.163-16 16-16s16 7.163 16 16-7.163 16-16 16-16-7.163-16-16zM16 2.133c-7.659 0-13.867 6.209-13.867 13.867s6.209 13.867 13.867 13.867v0c7.659 0 13.867-6.209 13.867-13.867s-6.209-13.867-13.867-13.867v0zM14.491 16l-5.643-5.646 1.507-1.507 5.645 5.645 5.646-5.645 1.507 1.507-5.645 5.646 5.645 5.646-1.507 1.507-5.646-5.645-5.646 5.643-1.507-1.507 5.645-5.645z"></path>
</symbol>
<symbol id="icon-upload" viewBox="0 0 32 32">
<path fill="#ff868e" style="fill: var(--color1, #ff868e)" d="M15.732 0l8.74 8.066-1.646 1.784-5.848-5.4v20.274h-2.426v-20.114l-5.206 5.206-1.714-1.716 8.1-8.1zM2.426 29.574v-14.552h-2.426v16.978h31.532v-16.98h-2.426v14.554h-26.68z"></path>
</symbol>
<symbol id="icon-sort-down" viewBox="0 0 30 32">
<path fill-rule="evenodd" clip-rule="evenodd" d="M6.088 28.358l-4.579-4.579-1.509 1.509 6.4 6.4c0.193 0.193 0.46 0.313 0.754 0.313s0.561-0.12 0.754-0.313l6.4-6.4-1.509-1.509-4.579 4.579v-28.358h-2.133v28.358zM24.221 2.134c-1.767 0-3.2 1.433-3.2 3.2v0 3.2h6.4v-3.2c0-1.767-1.433-3.2-3.2-3.2v0zM27.421 10.667v4.266h2.133v-9.6c0-2.945-2.388-5.333-5.333-5.333s-5.333 2.388-5.333 5.333v0 9.6h2.133v-4.266h6.4zM18.888 17.067h6.4c2.356 0.001 4.265 1.911 4.265 4.267 0 1.271-0.556 2.413-1.438 3.195l-0.004 0.004c0.888 0.786 1.444 1.928 1.444 3.2 0 2.357-1.91 4.267-4.267 4.267h-6.4v-14.933zM25.288 23.467c1.178 0 2.134-0.955 2.134-2.134s-0.955-2.134-2.134-2.134v0h-4.267v4.267h4.267zM21.021 25.6h4.267c1.178 0 2.134 0.955 2.134 2.134s-0.955 2.134-2.134 2.134h-4.267v-4.267z"></path>
</symbol>
<symbol id="icon-sort-up" viewBox="0 0 30 32">
<path fill="#8c8c8c" style="fill: var(--color2, #8c8c8c)" d="M6.4 0.312l-6.4 6.4 1.509 1.509 4.579-4.579v28.358h2.133v-28.358l4.579 4.579 1.509-1.509-6.4-6.4c-0.418-0.416-1.093-0.416-1.509 0zM24.221 2.133c-1.767 0-3.2 1.433-3.2 3.2v0 3.2h6.4v-3.2c0-1.767-1.433-3.2-3.2-3.2v0zM27.421 10.667v4.266h2.133v-9.6c0-2.945-2.388-5.333-5.333-5.333s-5.333 2.388-5.333 5.333v0 9.6h2.133v-4.266h6.4zM18.888 17.067h6.4c2.356 0.001 4.265 1.911 4.265 4.267 0 1.271-0.556 2.413-1.438 3.195l-0.004 0.004c0.888 0.786 1.444 1.928 1.444 3.2 0 2.357-1.91 4.267-4.267 4.267h-6.4v-14.933zM25.288 23.467c1.178 0 2.134-0.955 2.134-2.134s-0.955-2.134-2.134-2.134v0h-4.267v4.267h4.267zM21.021 25.6h4.267c1.178 0 2.134 0.955 2.134 2.134s-0.955 2.134-2.134 2.134h-4.267v-4.267z"></path>
</symbol>
<symbol id="icon-fav-color" viewBox="0 0 32 32">
<path fill="#ff868e" style="fill: var(--color1, #ff868e)" d="M8.609 2.133c-4.755 0-8.609 3.854-8.609 8.609 0 2.377 0.964 4.53 2.521 6.087l12.724 12.725c0.193 0.193 0.46 0.312 0.754 0.312s0.561-0.119 0.754-0.312l12.724-12.725c1.558-1.558 2.521-3.71 2.521-6.087 0-4.755-3.854-8.609-8.609-8.609-2.377 0-4.53 0.964-6.087 2.521l-1.303 1.303-1.303-1.303c-1.558-1.558-3.71-2.522-6.087-2.522v0z"></path>
</symbol>
<symbol id="icon-like" viewBox="0 0 32 32">
<path fill="#ff868e" style="fill: var(--color1, #ff868e)" d="M0 16c0-8.836 7.164-16 16-16s16 7.164 16 16c0 8.836-7.164 16-16 16s-16-7.164-16-16zM16 2.133c-7.659 0-13.867 6.208-13.867 13.867s6.208 13.867 13.867 13.867 13.867-6.208 13.867-13.867-6.208-13.867-13.867-13.867zM10.667 12.8h-2.133v-2.133h2.133v2.133zM23.467 12.8h-2.133v-2.133h2.133v2.133zM9.813 17.707l0.64 0.853c2.773 3.698 8.32 3.698 11.093 0l0.64-0.853 1.707 1.28-0.64 0.853c-3.627 4.835-10.88 4.835-14.507 0l-0.64-0.853 1.707-1.28z"></path>
</symbol>
<symbol id="icon-fav" viewBox="0 0 32 32">
<path fill="#ff868e" style="fill: var(--color1, #ff868e)" d="M8.609 4.267c-0 0-0 0-0 0-3.576 0-6.476 2.899-6.476 6.476 0 1.788 0.725 3.407 1.897 4.579l11.97 11.97 11.97-11.97c1.172-1.172 1.897-2.791 1.897-4.579 0-3.577-2.899-6.476-6.476-6.476-1.788 0-3.407 0.725-4.579 1.897l-2.058 2.059c-0.193 0.193-0.46 0.312-0.754 0.312s-0.561-0.119-0.754-0.312l-2.058-2.059c-1.172-1.172-2.791-1.897-4.579-1.897-0 0-0 0-0 0h0zM0 10.742c0-4.755 3.854-8.609 8.609-8.609 2.377 0 4.53 0.964 6.087 2.521l1.303 1.303 1.303-1.303c1.555-1.541 3.696-2.494 6.060-2.494 4.755 0 8.609 3.854 8.609 8.609 0 2.364-0.953 4.505-2.495 6.060l-12.724 12.725c-0.193 0.193-0.46 0.312-0.754 0.312s-0.561-0.119-0.754-0.312l-12.724-12.726c-1.558-1.558-2.521-3.709-2.522-6.086v-0z"></path>
</symbol>
<symbol id="icon-dislike" viewBox="0 0 32 32">
<path fill="#ff868e" style="fill: var(--color1, #ff868e)" d="M0 16c0-8.836 7.164-16 16-16s16 7.164 16 16c0 8.836-7.164 16-16 16s-16-7.164-16-16zM16 2.133c-7.659 0-13.867 6.208-13.867 13.867s6.208 13.867 13.867 13.867 13.867-6.208 13.867-13.867-6.208-13.867-13.867-13.867zM10.667 12.8h-2.133v-2.133h2.133v2.133zM23.467 12.8h-2.133v-2.133h2.133v2.133zM8.107 21.547l0.64-0.853c3.627-4.835 10.88-4.835 14.507 0l0.64 0.853-1.707 1.28-0.64-0.853c-2.773-3.698-8.32-3.698-11.093 0l-0.64 0.853-1.707-1.28z"></path>
</symbol>
<symbol id="icon-search" viewBox="0 0 32 32">
<path fill="#ff868e" style="fill: var(--color1, #ff868e)" d="M30.978 29.147l-7.616-7.92c1.885-2.225 3.030-5.128 3.030-8.299 0-0.003 0-0.006 0-0.009v0c0-7.123-5.795-12.92-12.92-12.92-7.123 0-12.92 5.797-12.92 12.92 0 7.125 5.797 12.92 12.92 12.92 0.010 0 0.022 0 0.035 0 2.761 0 5.318-0.876 7.408-2.364l-0.039 0.026 7.674 7.981c0.32 0.333 0.752 0.517 1.214 0.517 0.93-0.002 1.683-0.756 1.683-1.686 0-0.453-0.178-0.864-0.469-1.167l0.001 0.001zM13.474 3.371c5.271 0.006 9.542 4.278 9.549 9.548v0.001c-0.005 5.272-4.278 9.545-9.55 9.55h-0.001c-5.272-0.006-9.543-4.279-9.549-9.55v-0.001c0.006-5.271 4.278-9.542 9.548-9.549h0.001z"></path>
</symbol>
<symbol id="icon-close" viewBox="0 0 32 32">
<path fill="#ff868e" style="fill: var(--color1, #ff868e)" d="M14.491 16l-12.046-12.048 1.509-1.509 12.046 12.048 12.045-12.046 1.509 1.509-12.045 12.046 12.045 12.045-1.509 1.509-12.045-12.045-12.048 12.043-1.509-1.509 12.048-12.043z"></path>
</symbol>
<symbol id="icon-back" viewBox="0 0 32 32">
<path fill="#ff868e" style="fill: var(--color1, #ff868e)" d="M7.536 17.584l13.76 13.76c0.405 0.405 0.965 0.656 1.584 0.656 1.237 0 2.24-1.003 2.24-2.24 0-0.619-0.251-1.179-0.656-1.584v0l-12.176-12.176 12.176-12.174c0.405-0.405 0.656-0.965 0.656-1.584 0-1.237-1.003-2.24-2.24-2.24-0.619 0-1.179 0.251-1.584 0.656l-13.76 13.758c-0.407 0.405-0.659 0.965-0.659 1.584s0.252 1.179 0.659 1.584l0 0z"></path>
</symbol>
<symbol id="icon-update" viewBox="0 0 32 32">
<path fill="#ff868e" style="fill: var(--color1, #ff868e)" d="M15.171 4l-2.477-2.475 1.523-1.525 5.075 5.072-5.075 5.070-1.523-1.525 2.461-2.461c-6.347 0.251-11.397 5.455-11.4 11.84v0c0.004 6.544 5.31 11.848 11.854 11.848 0.001 0 0.001 0 0.002 0h-0c0 0 0.001 0 0.002 0 6.545 0 11.851-5.304 11.854-11.848v-1.079h2.157v1.078c0 7.733-6.275 14.003-14.013 14.003-7.736 0-14.011-6.27-14.011-14.003 0-7.586 6.038-13.765 13.571-13.997z"></path>
</symbol>
</defs>
</svg>
