<svg aria-hidden="true" style="position:absolute;width:0;height:0;overflow:hidden" xmlns="http://www.w3.org/2000/svg"><defs><symbol id="icon-error" viewBox="0 0 32 32"><path d="M0 16C0 7.163 7.163 0 16 0s16 7.163 16 16-7.163 16-16 16S0 24.837 0 16zM16 2.133C8.341 2.133 2.133 8.342 2.133 16S8.342 29.867 16 29.867c7.659 0 13.867-6.209 13.867-13.867S23.658 2.133 16 2.133zM14.491 16l-5.643-5.646 1.507-1.507L16 14.492l5.646-5.645 1.507 1.507L17.508 16l5.645 5.646-1.507 1.507L16 17.508l-5.646 5.643-1.507-1.507 5.645-5.645z"/></symbol><symbol id="icon-upload" viewBox="0 0 32 32"><path d="m15.732 0 8.74 8.066-1.646 1.784-5.848-5.4v20.274h-2.426V4.61L9.346 9.816 7.632 8.1l8.1-8.1zM2.426 29.574V15.022H0V32h31.532V15.02h-2.426v14.554H2.426z"/></symbol><symbol id="icon-sort-down" viewBox="0 0 30 32"><path fill-rule="evenodd" clip-rule="evenodd" d="m6.088 28.358-4.579-4.579L0 25.288l6.4 6.4a1.064 1.064 0 0 0 1.508 0l6.4-6.4-1.509-1.509-4.579 4.579V0H6.087v28.358zM24.221 2.134a3.2 3.2 0 0 0-3.2 3.2v3.2h6.4v-3.2a3.2 3.2 0 0 0-3.2-3.2zm3.2 8.533v4.266h2.133v-9.6a5.333 5.333 0 0 0-10.666 0v9.6h2.133v-4.266h6.4zm-8.533 6.4h6.4a4.267 4.267 0 0 1 2.827 7.462l-.004.004A4.266 4.266 0 0 1 25.288 32h-6.4V17.067zm6.4 6.4a2.134 2.134 0 0 0 0-4.268h-4.267v4.267h4.267zM21.021 25.6h4.267a2.134 2.134 0 0 1 0 4.268h-4.267v-4.267z"/></symbol><symbol id="icon-sort-up" viewBox="0 0 30 32"><path fill-rule="evenodd" clip-rule="evenodd" d="M6.4.312 0 6.712l1.509 1.509 4.579-4.579V32h2.133V3.642L12.8 8.221l1.509-1.509-6.4-6.4a1.068 1.068 0 0 0-1.509 0zm17.821 1.821a3.2 3.2 0 0 0-3.2 3.2v3.2h6.4v-3.2a3.2 3.2 0 0 0-3.2-3.2zm3.2 8.534v4.266h2.133v-9.6a5.333 5.333 0 0 0-10.666 0v9.6h2.133v-4.266h6.4zm-8.533 6.4h6.4a4.267 4.267 0 0 1 2.827 7.462l-.004.004A4.266 4.266 0 0 1 25.288 32h-6.4V17.067zm6.4 6.4a2.134 2.134 0 0 0 0-4.268h-4.267v4.267h4.267zM21.021 25.6h4.267a2.134 2.134 0 0 1 0 4.268h-4.267v-4.267z"/></symbol><symbol id="icon-fav-color" viewBox="0 0 32 32"><path d="M8.609 2.133a8.609 8.609 0 0 0-6.088 14.696l12.724 12.725a1.063 1.063 0 0 0 1.508 0l12.724-12.725a8.58 8.58 0 0 0 2.521-6.087 8.609 8.609 0 0 0-14.696-6.088l-1.303 1.303-1.303-1.303a8.582 8.582 0 0 0-6.087-2.522z"/></symbol><symbol id="icon-like" viewBox="0 0 32 32"><path d="M0 16C0 7.164 7.164 0 16 0s16 7.164 16 16-7.164 16-16 16S0 24.836 0 16zM16 2.133C8.341 2.133 2.133 8.341 2.133 16S8.341 29.867 16 29.867 29.867 23.659 29.867 16 23.659 2.133 16 2.133zM10.667 12.8H8.534v-2.133h2.133V12.8zm12.8 0h-2.133v-2.133h2.133V12.8zM9.813 17.707l.64.853c2.773 3.698 8.32 3.698 11.093 0l.64-.853 1.707 1.28-.64.853c-3.627 4.835-10.88 4.835-14.507 0l-.64-.853 1.707-1.28z"/></symbol><symbol id="icon-fav" viewBox="0 0 32 32"><path d="M8.609 4.267A6.476 6.476 0 0 0 4.03 15.322L16 27.292l11.97-11.97a6.475 6.475 0 1 0-9.158-9.158l-2.058 2.059a1.063 1.063 0 0 1-1.508 0l-2.058-2.059a6.456 6.456 0 0 0-4.579-1.897zM0 10.742a8.609 8.609 0 0 1 14.696-6.088l1.303 1.303 1.303-1.303a8.609 8.609 0 0 1 12.174 12.175L16.752 29.554a1.063 1.063 0 0 1-1.508 0L2.52 16.828a8.584 8.584 0 0 1-2.522-6.086z"/></symbol><symbol id="icon-dislike" viewBox="0 0 32 32"><path d="M0 16C0 7.164 7.164 0 16 0s16 7.164 16 16-7.164 16-16 16S0 24.836 0 16zM16 2.133C8.341 2.133 2.133 8.341 2.133 16S8.341 29.867 16 29.867 29.867 23.659 29.867 16 23.659 2.133 16 2.133zM10.667 12.8H8.534v-2.133h2.133V12.8zm12.8 0h-2.133v-2.133h2.133V12.8zm-15.36 8.747.64-.853c3.627-4.835 10.88-4.835 14.507 0l.64.853-1.707 1.28-.64-.853c-2.773-3.698-8.32-3.698-11.093 0l-.64.853-1.707-1.28z"/></symbol><symbol id="icon-search" viewBox="0 0 32 32"><path d="m30.978 29.147-7.616-7.92a12.806 12.806 0 0 0 3.03-8.299v-.009c0-7.123-5.795-12.92-12.92-12.92-7.123 0-12.92 5.797-12.92 12.92 0 7.125 5.797 12.92 12.92 12.92h.035a12.73 12.73 0 0 0 7.408-2.364l-.039.026 7.674 7.981c.32.333.752.517 1.214.517a1.686 1.686 0 0 0 1.214-2.853l.001.001zM13.474 3.371c5.271.006 9.542 4.278 9.549 9.548v.001a9.56 9.56 0 0 1-9.55 9.55h-.001c-5.272-.006-9.543-4.279-9.549-9.55v-.001c.006-5.271 4.278-9.542 9.548-9.549h.001z"/></symbol><symbol id="icon-close" viewBox="0 0 32 32"><path d="M14.491 16 2.445 3.952l1.509-1.509L16 14.491 28.045 2.445l1.509 1.509L17.509 16l12.045 12.045-1.509 1.509L16 17.509 3.952 29.552l-1.509-1.509L14.491 16z"/></symbol><symbol id="icon-back" viewBox="0 0 32 32"><path d="m7.536 17.584 13.76 13.76a2.24 2.24 0 0 0 3.168-3.168L12.288 16 24.464 3.826A2.24 2.24 0 0 0 21.296.658L7.536 14.416c-.407.405-.659.965-.659 1.584s.252 1.179.659 1.584z"/></symbol><symbol id="icon-update" viewBox="0 0 32 32"><path d="m15.171 4-2.477-2.475L14.217 0l5.075 5.072-5.075 5.07-1.523-1.525 2.461-2.461c-6.347.251-11.397 5.455-11.4 11.84.004 6.544 5.31 11.848 11.854 11.848h.004c6.545 0 11.851-5.304 11.854-11.848v-1.079h2.157v1.078c0 7.733-6.275 14.003-14.013 14.003-7.736 0-14.011-6.27-14.011-14.003 0-7.586 6.038-13.765 13.571-13.997z"/></symbol></defs></svg>