<svg aria-hidden="true" style="position:absolute;width:0;height:0;overflow:hidden" xmlns="http://www.w3.org/2000/svg"><defs><symbol id="icon-fav-color" viewBox="0 0 32 32"><path d="M8.609 2.133a8.609 8.609 0 0 0-6.088 14.696l12.724 12.725a1.063 1.063 0 0 0 1.508 0l12.724-12.725a8.58 8.58 0 0 0 2.521-6.087 8.609 8.609 0 0 0-14.696-6.088l-1.303 1.303-1.303-1.303a8.582 8.582 0 0 0-6.087-2.522z"/></symbol><symbol id="icon-like" viewBox="0 0 32 32"><path d="M0 16C0 7.164 7.164 0 16 0s16 7.164 16 16-7.164 16-16 16S0 24.836 0 16zM16 2.133C8.341 2.133 2.133 8.341 2.133 16S8.341 29.867 16 29.867 29.867 23.659 29.867 16 23.659 2.133 16 2.133zM10.667 12.8H8.534v-2.133h2.133V12.8zm12.8 0h-2.133v-2.133h2.133V12.8zM9.813 17.707l.64.853c2.773 3.698 8.32 3.698 11.093 0l.64-.853 1.707 1.28-.64.853c-3.627 4.835-10.88 4.835-14.507 0l-.64-.853 1.707-1.28z"/></symbol><symbol id="icon-fav" viewBox="0 0 32 32"><path d="M8.609 4.267A6.476 6.476 0 0 0 4.03 15.322L16 27.292l11.97-11.97a6.475 6.475 0 1 0-9.158-9.158l-2.058 2.059a1.063 1.063 0 0 1-1.508 0l-2.058-2.059a6.456 6.456 0 0 0-4.579-1.897zM0 10.742a8.609 8.609 0 0 1 14.696-6.088l1.303 1.303 1.303-1.303a8.609 8.609 0 0 1 12.174 12.175L16.752 29.554a1.063 1.063 0 0 1-1.508 0L2.52 16.828a8.584 8.584 0 0 1-2.522-6.086z"/></symbol><symbol id="icon-dislike" viewBox="0 0 32 32"><path d="M0 16C0 7.164 7.164 0 16 0s16 7.164 16 16-7.164 16-16 16S0 24.836 0 16zM16 2.133C8.341 2.133 2.133 8.341 2.133 16S8.341 29.867 16 29.867 29.867 23.659 29.867 16 23.659 2.133 16 2.133zM10.667 12.8H8.534v-2.133h2.133V12.8zm12.8 0h-2.133v-2.133h2.133V12.8zm-15.36 8.747.64-.853c3.627-4.835 10.88-4.835 14.507 0l.64.853-1.707 1.28-.64-.853c-2.773-3.698-8.32-3.698-11.093 0l-.64.853-1.707-1.28z"/></symbol><symbol id="icon-search" viewBox="0 0 32 32"><path d="m30.978 29.147-7.616-7.92a12.806 12.806 0 0 0 3.03-8.299v-.009c0-7.123-5.795-12.92-12.92-12.92-7.123 0-12.92 5.797-12.92 12.92 0 7.125 5.797 12.92 12.92 12.92h.035a12.73 12.73 0 0 0 7.408-2.364l-.039.026 7.674 7.981c.32.333.752.517 1.214.517a1.686 1.686 0 0 0 1.214-2.853l.001.001zM13.474 3.371c5.271.006 9.542 4.278 9.549 9.548v.001a9.56 9.56 0 0 1-9.55 9.55h-.001c-5.272-.006-9.543-4.279-9.549-9.55v-.001c.006-5.271 4.278-9.542 9.548-9.549h.001z"/></symbol><symbol id="icon-close" viewBox="0 0 32 32"><path d="M14.491 16 2.445 3.952l1.509-1.509L16 14.491 28.045 2.445l1.509 1.509L17.509 16l12.045 12.045-1.509 1.509L16 17.509 3.952 29.552l-1.509-1.509L14.491 16z"/></symbol><symbol id="icon-back" viewBox="0 0 32 32"><path d="m7.536 17.584 13.76 13.76a2.24 2.24 0 0 0 3.168-3.168L12.288 16 24.464 3.826A2.24 2.24 0 0 0 21.296.658L7.536 14.416c-.407.405-.659.965-.659 1.584s.252 1.179.659 1.584z"/></symbol><symbol id="icon-update" viewBox="0 0 32 32"><path d="m15.171 4-2.477-2.475L14.217 0l5.075 5.072-5.075 5.07-1.523-1.525 2.461-2.461c-6.347.251-11.397 5.455-11.4 11.84.004 6.544 5.31 11.848 11.854 11.848h.004c6.545 0 11.851-5.304 11.854-11.848v-1.079h2.157v1.078c0 7.733-6.275 14.003-14.013 14.003-7.736 0-14.011-6.27-14.011-14.003 0-7.586 6.038-13.765 13.571-13.997z"/></symbol></defs></svg>